ffmpeg version N-82167-g5e96558 Copyright (c) 2000-2016 the FFmpeg developers
  built with gcc 5.4.0 (Ubuntu 5.4.0-6ubuntu1~16.04.2) 20160609
  configuration: --prefix=/root/ffmpeg_build --pkg-config-flags=--static --extra-cflags=-I/root/ffmpeg_build/include --extra-ldflags=-L/root/ffmpeg_build/lib --bindir=/root/bin --enable-gpl --enable-libass --enable-libfdk-aac --enable-libfreetype --enable-libmp3lame --enable-libopus --enable-libtheora --enable-libvorbis --enable-libx264 --enable-libx265 --enable-nonfree
  libavutil      55. 35.100 / 55. 35.100
  libavcodec     57. 65.100 / 57. 65.100
  libavformat    57. 57.100 / 57. 57.100
  libavdevice    57.  2.100 / 57.  2.100
  libavfilter     6. 66.100 /  6. 66.100
  libswscale      4.  3.100 /  4.  3.100
  libswresample   2.  4.100 /  2.  4.100
  libpostproc    54.  2.100 / 54.  2.100
Input #0, matroska,webm, from '/media/yubikiri/bot/queue/3AnimePahe_Detective_Conan_-_021_720p_Fansub.mkv':
  Metadata:
    title           : 3|Text||0|0
    ENCODER         : Lavf57.57.100
  Duration: 00:24:42.73, start: 0.000000, bitrate: 997 kb/s
    Stream #0:0: Video: mpeg4 (Advanced Simple Profile), yuv420p, 640x480 [SAR 1:1 DAR 4:3], 23.98 fps, 23.98 tbr, 1k tbn, 23.98 tbc (default)
    Metadata:
      DURATION        : 00:24:42.733000000
    Stream #0:1: Audio: mp3, 48000 Hz, stereo, s16p, 112 kb/s (default)
    Metadata:
      DURATION        : 00:24:42.432000000
[libx264 @ 0x361a140] using SAR=1/1
[libx264 @ 0x361a140] using cpu capabilities: MMX2 SSE2Fast SSSE3 SSE4.2 AVX FMA3 AVX2 LZCNT BMI2
[libx264 @ 0x361a140] profile High, level 3.1
[libx264 @ 0x361a140] 264 - core 148 r2643 5c65704 - H.264/MPEG-4 AVC codec - Copyleft 2003-2015 - http://www.videolan.org/x264.html - options: cabac=1 ref=8 deblock=1:1:1 analyse=0x3:0x133 me=umh subme=7 psy=1 psy_rd=0.00:0.00 mixed_ref=1 me_range=8 chroma_me=1 trellis=0 8x8dct=1 cqm=0 deadzone=21,11 fast_pskip=1 chroma_qp_offset=0 threads=8 lookahead_threads=2 sliced_threads=0 nr=0 decimate=1 interlaced=0 bluray_compat=0 constrained_intra=0 bframes=3 b_pyramid=2 b_adapt=2 b_bias=0 direct=1 weightb=1 open_gop=0 weightp=2 keyint=240 keyint_min=24 scenecut=40 intra_refresh=0 rc_lookahead=60 rc=crf mbtree=1 crf=27.0 qcomp=0.60 qpmin=0 qpmax=69 qpstep=4 ip_ratio=1.40 aq=1:1.00
[libfdk_aac @ 0x3583960] Note, the VBR setting is unsupported and only works with some parameter combinations
Output #0, mp4, to '/media/yubikiri/bot/queue/3AnimePahe_Detective_Conan_-_021_720p_Fansub.mkv_encoded.mp4':
  Metadata:
    encoder         : Lavf57.57.100
    Stream #0:0: Video: h264 (libx264) ([33][0][0][0] / 0x0021), yuv420p, 640x480 [SAR 1:1 DAR 4:3], q=-1--1, 23.98 fps, 11988 tbn, 23.98 tbc (default)
    Metadata:
      encoder         : Lavc57.65.100 libx264
    Side data:
      cpb: bitrate max/min/avg: 0/0/0 buffer size: 0 vbv_delay: -1
    Stream #0:1: Audio: aac (libfdk_aac) (HE-AACv2) ([64][0][0][0] / 0x0040), 48000 Hz, stereo, s16, 48 kb/s (default)
    Metadata:
      encoder         : Lavc57.65.100 libfdk_aac
Stream mapping:
  Stream #0:0 -> #0:0 (mpeg4 (native) -> h264 (libx264))
  Stream #0:1 -> #0:1 (mp3 (native) -> aac (libfdk_aac))
Press [q] to stop, [?] for help
frame=  140 fps=0.0 q=32.0 size=     154kB time=00:00:05.99 bitrate= 210.0kbits/s dup=1 drop=0 speed=11.9x    frame=  279 fps=278 q=32.0 size=     357kB time=00:00:11.79 bitrate= 248.0kbits/s dup=1 drop=0 speed=11.8x    frame=  370 fps=246 q=32.0 size=     530kB time=00:00:15.59 bitrate= 278.3kbits/s dup=1 drop=0 speed=10.4x    frame=  469 fps=234 q=32.0 size=     723kB time=00:00:19.73 bitrate= 300.2kbits/s dup=1 drop=0 speed=9.83x    frame=  558 fps=222 q=32.0 size=     898kB time=00:00:23.40 bitrate= 314.3kbits/s dup=1 drop=0 speed= 9.3x    frame=  626 fps=204 q=32.0 size=    1105kB time=00:00:26.26 bitrate= 344.7kbits/s dup=1 drop=0 speed=8.57x    frame=  700 fps=196 q=32.0 size=    1355kB time=00:00:29.33 bitrate= 378.3kbits/s dup=1 drop=0 speed=8.23x    frame=  759 fps=186 q=32.0 size=    1540kB time=00:00:31.80 bitrate= 396.7kbits/s dup=1 drop=0 speed=7.77x    frame=  794 fps=173 q=32.0 size=    1721kB time=00:00:33.25 bitrate= 423.8kbits/s dup=1 drop=0 speed=7.23x    frame=  828 fps=160 q=32.0 size=    1931kB time=00:00:34.71 bitrate= 455.8kbits/s dup=1 drop=0 speed=6.72x    frame=  847 fps=149 q=32.0 size=    2030kB time=00:00:35.47 bitrate= 468.7kbits/s dup=1 drop=0 speed=6.23x    frame=  869 fps=140 q=32.0 size=    2149kB time=00:00:36.41 bitrate= 483.4kbits/s dup=1 drop=0 speed=5.88x    frame=  920 fps=137 q=32.0 size=    2382kB time=00:00:38.50 bitrate= 506.7kbits/s dup=1 drop=0 speed=5.75x    frame=  978 fps=136 q=32.0 size=    2590kB time=00:00:40.93 bitrate= 518.3kbits/s dup=1 drop=0 speed=5.68x    frame= 1060 fps=137 q=32.0 size=    2829kB time=00:00:44.39 bitrate= 521.9kbits/s dup=1 drop=0 speed=5.75x    frame= 1130 fps=137 q=32.0 size=    3055kB time=00:00:47.29 bitrate= 529.2kbits/s dup=1 drop=0 speed=5.75x    frame= 1192 fps=136 q=32.0 size=    3267kB time=00:00:49.85 bitrate= 536.8kbits/s dup=1 drop=0 speed= 5.7x    frame= 1235 fps=133 q=32.0 size=    3562kB time=00:00:51.69 bitrate= 564.5kbits/s dup=1 drop=0 speed=5.57x    frame= 1320 fps=135 q=32.0 size=    3748kB time=00:00:55.23 bitrate= 555.9kbits/s dup=1 drop=0 speed=5.64x    frame= 1374 fps=133 q=32.0 size=    4036kB time=00:00:57.45 bitrate= 575.5kbits/s dup=1 drop=0 speed=5.58x    frame= 1443 fps=133 q=32.0 size=    4283kB time=00:01:00.35 bitrate= 581.4kbits/s dup=1 drop=0 speed=5.57x    frame= 1489 fps=131 q=32.0 size=    4512kB time=00:01:02.27 bitrate= 593.5kbits/s dup=1 drop=0 speed=5.49x    frame= 1563 fps=132 q=32.0 size=    4740kB time=00:01:05.34 bitrate= 594.2kbits/s dup=1 drop=0 speed=5.51x    frame= 1633 fps=132 q=32.0 size=    4899kB time=00:01:08.28 bitrate= 587.7kbits/s dup=1 drop=0 speed=5.52x    frame= 1691 fps=131 q=32.0 size=    5106kB time=00:01:10.67 bitrate= 591.8kbits/s dup=1 drop=0 speed=5.49x    frame= 1750 fps=131 q=32.0 size=    5334kB time=00:01:13.15 bitrate= 597.3kbits/s dup=1 drop=0 speed=5.47x    frame= 1796 fps=129 q=32.0 size=    5564kB time=00:01:15.07 bitrate= 607.2kbits/s dup=1 drop=0 speed=5.41x    frame= 1835 fps=128 q=32.0 size=    5787kB time=00:01:16.69 bitrate= 618.1kbits/s dup=1 drop=0 speed=5.33x    frame= 1886 fps=127 q=32.0 size=    6018kB time=00:01:18.82 bitrate= 625.4kbits/s dup=1 drop=0 speed= 5.3x    frame= 1946 fps=126 q=32.0 size=    6198kB time=00:01:21.30 bitrate= 624.5kbits/s dup=1 drop=0 speed=5.28x    frame= 2023 fps=127 q=32.0 size=    6335kB time=00:01:24.54 bitrate= 613.8kbits/s dup=1 drop=0 speed=5.32x    frame= 2110 fps=129 q=32.0 size=    6485kB time=00:01:28.17 bitrate= 602.6kbits/s dup=1 drop=0 speed=5.37x    frame= 2235 fps=132 q=32.0 size=    6653kB time=00:01:33.37 bitrate= 583.7kbits/s dup=1 drop=0 speed=5.52x    frame= 2382 fps=137 q=32.0 size=    6756kB time=00:01:39.52 bitrate= 556.1kbits/s dup=1 drop=0 speed=5.72x    frame= 2535 fps=142 q=32.0 size=    6883kB time=00:01:45.87 bitrate= 532.5kbits/s dup=1 drop=0 speed=5.91x    frame= 2686 fps=146 q=32.0 size=    7021kB time=00:01:52.19 bitrate= 512.7kbits/s dup=1 drop=0 speed=6.09x    frame= 2795 fps=148 q=32.0 size=    7145kB time=00:01:56.71 bitrate= 501.5kbits/s dup=1 drop=0 speed=6.17x    frame= 2838 fps=146 q=32.0 size=    7238kB time=00:01:58.55 bitrate= 500.1kbits/s dup=1 drop=0 speed=6.11x    frame= 2893 fps=145 q=32.0 size=    7339kB time=00:02:00.81 bitrate= 497.6kbits/s dup=1 drop=0 speed=6.07x    frame= 2967 fps=145 q=32.0 size=    7445kB time=00:02:03.92 bitrate= 492.2kbits/s dup=1 drop=0 speed=6.07x    frame= 3028 fps=145 q=32.0 size=    7547kB time=00:02:06.44 bitrate= 488.9kbits/s dup=1 drop=0 speed=6.04x    frame= 3079 fps=144 q=32.0 size=    7657kB time=00:02:08.57 bitrate= 487.9kbits/s dup=1 drop=0 speed=   6x    frame= 3142 fps=143 q=32.0 size=    7760kB time=00:02:11.22 bitrate= 484.5kbits/s dup=1 drop=0 speed=5.98x    frame= 3229 fps=144 q=32.0 size=    7888kB time=00:02:14.84 bitrate= 479.2kbits/s dup=1 drop=0 speed=6.01x    frame= 3329 fps=145 q=32.0 size=    7987kB time=00:02:18.98 bitrate= 470.7kbits/s dup=1 drop=0 speed=6.06x    frame= 3401 fps=145 q=32.0 size=    8085kB time=00:02:22.01 bitrate= 466.4kbits/s dup=1 drop=0 speed=6.05x    frame= 3458 fps=144 q=32.0 size=    8183kB time=00:02:24.36 bitrate= 464.4kbits/s dup=1 drop=0 speed=6.02x    frame= 3517 fps=144 q=32.0 size=    8285kB time=00:02:26.83 bitrate= 462.2kbits/s dup=1 drop=0 speed=   6x    frame= 3578 fps=143 q=32.0 size=    8386kB time=00:02:29.39 bitrate= 459.8kbits/s dup=1 drop=0 speed=5.98x    frame= 3619 fps=142 q=32.0 size=    8495kB time=00:02:31.10 bitrate= 460.6kbits/s dup=1 drop=0 speed=5.92x    frame= 3660 fps=141 q=32.0 size=    8627kB time=00:02:32.81 bitrate= 462.5kbits/s dup=1 drop=0 speed=5.88x    frame= 3724 fps=140 q=32.0 size=    8777kB time=00:02:35.45 bitrate= 462.5kbits/s dup=1 drop=0 speed=5.86x    frame= 3797 fps=140 q=32.0 size=    8873kB time=00:02:38.52 bitrate= 458.5kbits/s dup=1 drop=0 speed=5.86x    frame= 3837 fps=139 q=32.0 size=    8957kB time=00:02:40.19 bitrate= 458.1kbits/s dup=1 drop=0 speed=5.81x    frame= 3898 fps=139 q=32.0 size=    9050kB time=00:02:42.75 bitrate= 455.5kbits/s dup=1 drop=0 speed= 5.8x    frame= 3972 fps=139 q=32.0 size=    9178kB time=00:02:45.82 bitrate= 453.4kbits/s dup=1 drop=0 speed=5.81x    frame= 4042 fps=139 q=32.0 size=    9261kB time=00:02:48.72 bitrate= 449.6kbits/s dup=1 drop=0 speed= 5.8x    frame= 4064 fps=137 q=32.0 size=    9362kB time=00:02:49.66 bitrate= 452.0kbits/s dup=1 drop=0 speed=5.74x    frame= 4127 fps=137 q=32.0 size=    9466kB time=00:02:52.31 bitrate= 450.1kbits/s dup=1 drop=0 speed=5.73x    frame= 4171 fps=136 q=32.0 size=    9581kB time=00:02:54.10 bitrate= 450.8kbits/s dup=1 drop=0 speed=5.69x    frame= 4231 fps=136 q=29.0 size=    9660kB time=00:02:56.61 bitrate= 448.1kbits/s dup=1 drop=0 speed=5.68x    frame= 4286 fps=136 q=32.0 size=    9789kB time=00:02:58.92 bitrate= 448.2kbits/s dup=1 drop=0 speed=5.66x    frame= 4350 fps=136 q=32.0 size=    9910kB time=00:03:01.56 bitrate= 447.1kbits/s dup=1 drop=0 speed=5.66x    frame= 4430 fps=136 q=32.0 size=   10034kB time=00:03:04.93 bitrate= 444.5kbits/s dup=1 drop=0 speed=5.67x    frame= 4515 fps=136 q=32.0 size=   10129kB time=00:03:08.48 bitrate= 440.2kbits/s dup=1 drop=0 speed=5.69x    frame= 4606 fps=137 q=32.0 size=   10234kB time=00:03:12.27 bitrate= 436.0kbits/s dup=1 drop=0 speed=5.71x    frame= 4692 fps=137 q=32.0 size=   10346kB time=00:03:15.86 bitrate= 432.7kbits/s dup=1 drop=0 speed=5.73x    frame= 4769 fps=138 q=32.0 size=   10452kB time=00:03:19.06 bitrate= 430.1kbits/s dup=1 drop=0 speed=5.74x    frame= 4834 fps=137 q=32.0 size=   10551kB time=00:03:21.75 bitrate= 428.4kbits/s dup=1 drop=0 speed=5.73x    frame= 4896 fps=137 q=32.0 size=   10642kB time=00:03:24.35 bitrate= 426.6kbits/s dup=1 drop=0 speed=5.73x    frame= 4957 fps=137 q=32.0 size=   10760kB time=00:03:26.91 bitrate= 426.0kbits/s dup=1 drop=0 speed=5.72x    frame= 5009 fps=136 q=32.0 size=   10857kB time=00:03:29.08 bitrate= 425.4kbits/s dup=1 drop=0 speed= 5.7x    frame= 5079 fps=136 q=32.0 size=   10959kB time=00:03:31.99 bitrate= 423.5kbits/s dup=1 drop=0 speed= 5.7x    frame= 5162 fps=137 q=32.0 size=   11060kB time=00:03:35.44 bitrate= 420.5kbits/s dup=1 drop=0 speed=5.71x    frame= 5236 fps=137 q=32.0 size=   11202kB time=00:03:38.56 bitrate= 419.9kbits/s dup=1 drop=0 speed=5.72x    frame= 5322 fps=137 q=32.0 size=   11301kB time=00:03:42.10 bitrate= 416.8kbits/s dup=1 drop=0 speed=5.74x    frame= 5408 fps=138 q=32.0 size=   11400kB time=00:03:45.72 bitrate= 413.7kbits/s dup=1 drop=0 speed=5.75x    frame= 5473 fps=138 q=32.0 size=   11495kB time=00:03:48.41 bitrate= 412.3kbits/s dup=1 drop=0 speed=5.75x    frame= 5556 fps=138 q=32.0 size=   11588kB time=00:03:51.87 bitrate= 409.4kbits/s dup=1 drop=0 speed=5.76x    frame= 5637 fps=138 q=32.0 size=   11685kB time=00:03:55.28 bitrate= 406.8kbits/s dup=1 drop=0 speed=5.78x    frame= 5708 fps=138 q=32.0 size=   11804kB time=00:03:58.23 bitrate= 405.9kbits/s dup=1 drop=0 speed=5.78x    frame= 5791 fps=139 q=32.0 size=   11908kB time=00:04:01.68 bitrate= 403.6kbits/s dup=1 drop=0 speed=5.79x    frame= 5857 fps=139 q=32.0 size=   12024kB time=00:04:04.45 bitrate= 402.9kbits/s dup=1 drop=0 speed=5.79x    frame= 5921 fps=138 q=32.0 size=   12113kB time=00:04:07.10 bitrate= 401.6kbits/s dup=1 drop=0 speed=5.78x    frame= 5992 fps=138 q=32.0 size=   12205kB time=00:04:10.09 bitrate= 399.8kbits/s dup=1 drop=0 speed=5.78x    frame= 6036 fps=138 q=32.0 size=   12307kB time=00:04:11.88 bitrate= 400.3kbits/s dup=1 drop=0 speed=5.75x    frame= 6121 fps=138 q=32.0 size=   12391kB time=00:04:15.46 bitrate= 397.4kbits/s dup=1 drop=0 speed=5.77x    frame= 6204 fps=139 q=32.0 size=   12509kB time=00:04:18.92 bitrate= 395.8kbits/s dup=1 drop=0 speed=5.78x    frame= 6286 fps=139 q=32.0 size=   12623kB time=00:04:22.33 bitrate= 394.2kbits/s dup=1 drop=0 speed=5.79x    frame= 6360 fps=139 q=32.0 size=   12739kB time=00:04:25.40 bitrate= 393.2kbits/s dup=1 drop=0 speed= 5.8x    frame= 6439 fps=139 q=32.0 size=   12849kB time=00:04:28.73 bitrate= 391.7kbits/s dup=1 drop=0 speed= 5.8x    frame= 6511 fps=139 q=32.0 size=   12974kB time=00:04:31.72 bitrate= 391.2kbits/s dup=1 drop=0 speed=5.81x    frame= 6567 fps=139 q=32.0 size=   13106kB time=00:04:34.07 bitrate= 391.7kbits/s dup=1 drop=0 speed=5.79x    frame= 6635 fps=139 q=32.0 size=   13262kB time=00:04:36.92 bitrate= 392.3kbits/s dup=1 drop=0 speed=5.79x    frame= 6718 fps=139 q=32.0 size=   13370kB time=00:04:40.38 bitrate= 390.6kbits/s dup=1 drop=0 speed= 5.8x    frame= 6777 fps=139 q=29.0 size=   13480kB time=00:04:42.81 bitrate= 390.5kbits/s dup=1 drop=0 speed=5.79x    frame= 6833 fps=138 q=32.0 size=   13580kB time=00:04:45.16 bitrate= 390.1kbits/s dup=1 drop=0 speed=5.78x    frame= 6898 fps=138 q=32.0 size=   13714kB time=00:04:47.85 bitrate= 390.3kbits/s dup=1 drop=0 speed=5.77x    frame= 6971 fps=138 q=32.0 size=   13812kB time=00:04:50.92 bitrate= 388.9kbits/s dup=1 drop=0 speed=5.78x    frame= 7027 fps=138 q=32.0 size=   13875kB time=00:04:53.27 bitrate= 387.6kbits/s dup=1 drop=0 speed=5.77x    frame= 7081 fps=138 q=32.0 size=   14016kB time=00:04:55.48 bitrate= 388.6kbits/s dup=1 drop=0 speed=5.75x    frame= 7139 fps=138 q=32.0 size=   14157kB time=00:04:57.92 bitrate= 389.3kbits/s dup=1 drop=0 speed=5.74x    frame= 7215 fps=138 q=32.0 size=   14312kB time=00:05:01.07 bitrate= 389.4kbits/s dup=1 drop=0 speed=5.75x    frame= 7306 fps=138 q=32.0 size=   14449kB time=00:05:04.87 bitrate= 388.3kbits/s dup=1 drop=0 speed=5.76x    frame= 7390 fps=138 q=32.0 size=   14582kB time=00:05:08.37 bitrate= 387.4kbits/s dup=1 drop=0 speed=5.77x    frame= 7479 fps=139 q=32.0 size=   14686kB time=00:05:12.08 bitrate= 385.5kbits/s dup=1 drop=0 speed=5.78x    frame= 7567 fps=139 q=32.0 size=   14851kB time=00:05:15.75 bitrate= 385.3kbits/s dup=1 drop=0 speed= 5.8x    frame= 7664 fps=139 q=32.0 size=   14980kB time=00:05:19.80 bitrate= 383.7kbits/s dup=1 drop=0 speed=5.82x    frame= 7762 fps=140 q=32.0 size=   15084kB time=00:05:23.90 bitrate= 381.5kbits/s dup=1 drop=0 speed=5.84x    frame= 7873 fps=141 q=32.0 size=   15200kB time=00:05:28.51 bitrate= 379.0kbits/s dup=1 drop=0 speed=5.87x    frame= 7959 fps=141 q=32.0 size=   15361kB time=00:05:32.09 bitrate= 378.9kbits/s dup=1 drop=0 speed=5.88x    frame= 8058 fps=141 q=32.0 size=   15443kB time=00:05:36.23 bitrate= 376.3kbits/s dup=1 drop=0 speed= 5.9x    frame= 8155 fps=142 q=32.0 size=   15620kB time=00:05:40.28 bitrate= 376.0kbits/s dup=1 drop=0 speed=5.92x    frame= 8248 fps=142 q=32.0 size=   15833kB time=00:05:44.17 bitrate= 376.9kbits/s dup=1 drop=0 speed=5.93x    frame= 8359 fps=143 q=32.0 size=   15977kB time=00:05:48.77 bitrate= 375.3kbits/s dup=1 drop=0 speed=5.96x    frame= 8456 fps=143 q=32.0 size=   16118kB time=00:05:52.83 bitrate= 374.2kbits/s dup=1 drop=0 speed=5.98x    frame= 8569 fps=144 q=32.0 size=   16209kB time=00:05:57.56 bitrate= 371.4kbits/s dup=1 drop=0 speed=6.01x    frame= 8618 fps=144 q=32.0 size=   16304kB time=00:05:59.57 bitrate= 371.5kbits/s dup=1 drop=0 speed=5.99x    frame= 8695 fps=144 q=32.0 size=   16436kB time=00:06:02.81 bitrate= 371.1kbits/s dup=1 drop=0 speed=5.99x    frame= 8774 fps=144 q=32.0 size=   16593kB time=00:06:06.10 bitrate= 371.3kbits/s dup=1 drop=0 speed=5.99x    frame= 8841 fps=144 q=32.0 size=   16728kB time=00:06:08.91 bitrate= 371.4kbits/s dup=1 drop=0 speed=5.99x    frame= 8898 fps=143 q=32.0 size=   16837kB time=00:06:11.26 bitrate= 371.5kbits/s dup=1 drop=0 speed=5.98x    frame= 9004 fps=144 q=32.0 size=   16951kB time=00:06:15.70 bitrate= 369.6kbits/s dup=1 drop=0 speed=   6x    frame= 9093 fps=144 q=32.0 size=   17076kB time=00:06:19.41 bitrate= 368.7kbits/s dup=1 drop=0 speed=6.01x    frame= 9175 fps=144 q=32.0 size=   17174kB time=00:06:22.82 bitrate= 367.5kbits/s dup=1 drop=0 speed=6.02x    frame= 9240 fps=144 q=32.0 size=   17272kB time=00:06:25.51 bitrate= 367.0kbits/s dup=1 drop=0 speed=6.01x    frame= 9323 fps=144 q=32.0 size=   17395kB time=00:06:29.01 bitrate= 366.3kbits/s dup=1 drop=0 speed=6.02x    frame= 9410 fps=144 q=32.0 size=   17507kB time=00:06:32.64 bitrate= 365.3kbits/s dup=1 drop=0 speed=6.02x    frame= 9458 fps=144 q=32.0 size=   17574kB time=00:06:34.64 bitrate= 364.8kbits/s dup=1 drop=0 speed=   6x    frame= 9509 fps=143 q=32.0 size=   17709kB time=00:06:36.77 bitrate= 365.6kbits/s dup=1 drop=0 speed=5.99x    frame= 9576 fps=143 q=32.0 size=   17842kB time=00:06:39.55 bitrate= 365.8kbits/s dup=1 drop=0 speed=5.98x    frame= 9656 fps=144 q=32.0 size=   17927kB time=00:06:42.88 bitrate= 364.5kbits/s dup=1 drop=0 speed=5.99x    frame= 9743 fps=144 q=32.0 size=   18064kB time=00:06:46.55 bitrate= 364.0kbits/s dup=1 drop=0 speed=   6x    frame= 9825 fps=144 q=32.0 size=   18203kB time=00:06:49.96 bitrate= 363.7kbits/s dup=1 drop=0 speed=   6x    frame= 9913 fps=144 q=32.0 size=   18350kB time=00:06:53.59 bitrate= 363.5kbits/s dup=1 drop=0 speed=6.01x    frame=10000 fps=144 q=32.0 size=   18480kB time=00:06:57.25 bitrate= 362.8kbits/s dup=1 drop=0 speed=6.02x    frame=10077 fps=144 q=32.0 size=   18630kB time=00:07:00.45 bitrate= 363.0kbits/s dup=1 drop=0 speed=6.02x    frame=10163 fps=145 q=32.0 size=   18734kB time=00:07:04.04 bitrate= 361.9kbits/s dup=1 drop=0 speed=6.03x    frame=10220 fps=144 q=32.0 size=   18854kB time=00:07:06.39 bitrate= 362.2kbits/s dup=1 drop=0 speed=6.02x    frame=10274 fps=144 q=32.0 size=   18984kB time=00:07:08.65 bitrate= 362.8kbits/s dup=1 drop=0 speed=6.01x    frame=10351 fps=144 q=32.0 size=   19102kB time=00:07:11.89 bitrate= 362.3kbits/s dup=1 drop=0 speed=6.01x    frame=10440 fps=144 q=32.0 size=   19256kB time=00:07:15.60 bitrate= 362.1kbits/s dup=1 drop=0 speed=6.02x    frame=10559 fps=145 q=32.0 size=   19395kB time=00:07:20.55 bitrate= 360.6kbits/s dup=1 drop=0 speed=6.05x    frame=10659 fps=145 q=32.0 size=   19527kB time=00:07:24.73 bitrate= 359.7kbits/s dup=1 drop=0 speed=6.06x    frame=10751 fps=146 q=32.0 size=   19658kB time=00:07:28.57 bitrate= 359.0kbits/s dup=1 drop=0 speed=6.08x    frame=10866 fps=146 q=32.0 size=   19793kB time=00:07:33.39 bitrate= 357.6kbits/s dup=1 drop=0 speed= 6.1x    frame=10964 fps=146 q=32.0 size=   19884kB time=00:07:37.45 bitrate= 356.1kbits/s dup=1 drop=0 speed=6.11x    frame=11035 fps=146 q=32.0 size=   20047kB time=00:07:40.39 bitrate= 356.7kbits/s dup=1 drop=0 speed=6.11x    frame=11141 fps=147 q=32.0 size=   20134kB time=00:07:44.87 bitrate= 354.8kbits/s dup=1 drop=0 speed=6.13x    frame=11236 fps=147 q=32.0 size=   20280kB time=00:07:48.80 bitrate= 354.4kbits/s dup=1 drop=0 speed=6.14x    frame=11337 fps=147 q=32.0 size=   20397kB time=00:07:53.02 bitrate= 353.2kbits/s dup=1 drop=0 speed=6.15x    frame=11424 fps=148 q=32.0 size=   20535kB time=00:07:56.65 bitrate= 352.9kbits/s dup=1 drop=0 speed=6.16x    frame=11502 fps=148 q=32.0 size=   20673kB time=00:07:59.89 bitrate= 352.9kbits/s dup=1 drop=0 speed=6.16x    frame=11594 fps=148 q=32.0 size=   20828kB time=00:08:03.73 bitrate= 352.7kbits/s dup=1 drop=0 speed=6.17x    frame=11703 fps=148 q=32.0 size=   20924kB time=00:08:08.29 bitrate= 351.0kbits/s dup=1 drop=0 speed=6.19x    frame=11787 fps=148 q=32.0 size=   21038kB time=00:08:11.79 bitrate= 350.4kbits/s dup=1 drop=0 speed= 6.2x    frame=11872 fps=149 q=32.0 size=   21169kB time=00:08:15.29 bitrate= 350.1kbits/s dup=1 drop=0 speed= 6.2x    frame=11939 fps=148 q=29.0 size=   21241kB time=00:08:18.11 bitrate= 349.3kbits/s dup=1 drop=0 speed= 6.2x    frame=12013 fps=148 q=32.0 size=   21347kB time=00:08:21.18 bitrate= 348.9kbits/s dup=1 drop=0 speed=6.19x    frame=12107 fps=149 q=32.0 size=   21434kB time=00:08:25.11 bitrate= 347.6kbits/s dup=1 drop=0 speed= 6.2x    frame=12165 fps=149 q=32.0 size=   21555kB time=00:08:27.54 bitrate= 347.9kbits/s dup=1 drop=0 speed= 6.2x    frame=12256 fps=149 q=32.0 size=   21683kB time=00:08:31.33 bitrate= 347.4kbits/s dup=1 drop=0 speed=6.21x    frame=12344 fps=149 q=32.0 size=   21794kB time=00:08:35.00 bitrate= 346.7kbits/s dup=1 drop=0 speed=6.21x    frame=12417 fps=149 q=32.0 size=   21946kB time=00:08:38.08 bitrate= 347.0kbits/s dup=1 drop=0 speed=6.21x    frame=12507 fps=149 q=32.0 size=   22076kB time=00:08:41.79 bitrate= 346.6kbits/s dup=1 drop=0 speed=6.22x    frame=12562 fps=149 q=32.0 size=   22196kB time=00:08:44.09 bitrate= 346.9kbits/s dup=1 drop=0 speed=6.21x    frame=12631 fps=149 q=32.0 size=   22311kB time=00:08:46.95 bitrate= 346.9kbits/s dup=1 drop=0 speed=6.21x    frame=12735 fps=149 q=32.0 size=   22414kB time=00:08:51.30 bitrate= 345.6kbits/s dup=1 drop=0 speed=6.22x    frame=12822 fps=149 q=32.0 size=   22567kB time=00:08:54.93 bitrate= 345.6kbits/s dup=1 drop=0 speed=6.23x    frame=12930 fps=150 q=32.0 size=   22702kB time=00:08:59.45 bitrate= 344.7kbits/s dup=1 drop=0 speed=6.24x    frame=13015 fps=150 q=32.0 size=   22780kB time=00:09:02.99 bitrate= 343.7kbits/s dup=1 drop=0 speed=6.25x    frame=13130 fps=150 q=32.0 size=   22895kB time=00:09:07.81 bitrate= 342.4kbits/s dup=1 drop=0 speed=6.27x    frame=13221 fps=150 q=32.0 size=   23009kB time=00:09:11.57 bitrate= 341.7kbits/s dup=1 drop=0 speed=6.27x    frame=13339 fps=151 q=32.0 size=   23136kB time=00:09:16.52 bitrate= 340.6kbits/s dup=1 drop=0 speed=6.29x    frame=13459 fps=151 q=32.0 size=   23265kB time=00:09:21.47 bitrate= 339.4kbits/s dup=1 drop=0 speed=6.31x    frame=13524 fps=151 q=32.0 size=   23383kB time=00:09:24.20 bitrate= 339.5kbits/s dup=1 drop=0 speed=6.31x    frame=13648 fps=152 q=32.0 size=   23506kB time=00:09:29.40 bitrate= 338.2kbits/s dup=1 drop=0 speed=6.33x    frame=13736 fps=152 q=32.0 size=   23587kB time=00:09:33.07 bitrate= 337.2kbits/s dup=1 drop=0 speed=6.33x    frame=13805 fps=152 q=32.0 size=   23690kB time=00:09:35.93 bitrate= 337.0kbits/s dup=1 drop=0 speed=6.33x    frame=13869 fps=152 q=32.0 size=   23829kB time=00:09:38.62 bitrate= 337.4kbits/s dup=1 drop=0 speed=6.32x    frame=13991 fps=152 q=32.0 size=   23923kB time=00:09:43.74 bitrate= 335.7kbits/s dup=1 drop=0 speed=6.35x    frame=14109 fps=153 q=32.0 size=   24048kB time=00:09:48.60 bitrate= 334.7kbits/s dup=1 drop=0 speed=6.36x    frame=14229 fps=153 q=32.0 size=   24161kB time=00:09:53.60 bitrate= 333.4kbits/s dup=1 drop=0 speed=6.38x    frame=14308 fps=153 q=32.0 size=   24270kB time=00:09:56.92 bitrate= 333.1kbits/s dup=1 drop=0 speed=6.38x    frame=14409 fps=153 q=32.0 size=   24398kB time=00:10:01.11 bitrate= 332.5kbits/s dup=1 drop=0 speed=6.39x    frame=14497 fps=153 q=32.0 size=   24511kB time=00:10:04.77 bitrate= 332.0kbits/s dup=1 drop=0 speed= 6.4x    frame=14569 fps=153 q=32.0 size=   24576kB time=00:10:07.80 bitrate= 331.2kbits/s dup=1 drop=0 speed=6.39x    frame=14629 fps=153 q=32.0 size=   24684kB time=00:10:10.32 bitrate= 331.3kbits/s dup=1 drop=0 speed=6.39x    frame=14700 fps=153 q=32.0 size=   24770kB time=00:10:13.27 bitrate= 330.9kbits/s dup=1 drop=0 speed=6.38x    frame=14734 fps=153 q=32.0 size=   24897kB time=00:10:14.67 bitrate= 331.8kbits/s dup=1 drop=0 speed=6.37x    frame=14812 fps=153 q=32.0 size=   25026kB time=00:10:17.96 bitrate= 331.8kbits/s dup=1 drop=0 speed=6.37x    frame=14920 fps=153 q=32.0 size=   25136kB time=00:10:22.44 bitrate= 330.8kbits/s dup=1 drop=0 speed=6.38x    frame=15051 fps=153 q=32.0 size=   25244kB time=00:10:27.90 bitrate= 329.3kbits/s dup=1 drop=0 speed= 6.4x    frame=15186 fps=154 q=32.0 size=   25329kB time=00:10:33.53 bitrate= 327.5kbits/s dup=1 drop=0 speed=6.43x    frame=15283 fps=154 q=32.0 size=   25449kB time=00:10:37.59 bitrate= 327.0kbits/s dup=1 drop=0 speed=6.44x    frame=15403 fps=155 q=32.0 size=   25559kB time=00:10:42.58 bitrate= 325.8kbits/s dup=1 drop=0 speed=6.45x    frame=15515 fps=155 q=32.0 size=   25672kB time=00:10:47.27 bitrate= 324.9kbits/s dup=1 drop=0 speed=6.47x    frame=15584 fps=155 q=32.0 size=   25781kB time=00:10:50.13 bitrate= 324.8kbits/s dup=1 drop=0 speed=6.46x    frame=15653 fps=155 q=32.0 size=   25930kB time=00:10:53.03 bitrate= 325.3kbits/s dup=1 drop=0 speed=6.46x    frame=15787 fps=155 q=32.0 size=   26079kB time=00:10:58.62 bitrate= 324.4kbits/s dup=1 drop=0 speed=6.48x    frame=15910 fps=156 q=32.0 size=   26186kB time=00:11:03.78 bitrate= 323.2kbits/s dup=1 drop=0 speed= 6.5x    frame=16009 fps=156 q=32.0 size=   26303kB time=00:11:07.88 bitrate= 322.6kbits/s dup=1 drop=0 speed=6.51x    frame=16074 fps=156 q=32.0 size=   26449kB time=00:11:10.57 bitrate= 323.1kbits/s dup=1 drop=0 speed= 6.5x    frame=16178 fps=156 q=32.0 size=   26591kB time=00:11:14.92 bitrate= 322.8kbits/s dup=1 drop=0 speed=6.51x    frame=16294 fps=156 q=32.0 size=   26701kB time=00:11:19.74 bitrate= 321.8kbits/s dup=1 drop=0 speed=6.53x    frame=16400 fps=157 q=32.0 size=   26874kB time=00:11:24.18 bitrate= 321.8kbits/s dup=1 drop=0 speed=6.54x    frame=16513 fps=157 q=32.0 size=   26980kB time=00:11:28.87 bitrate= 320.8kbits/s dup=1 drop=0 speed=6.55x    frame=16642 fps=158 q=32.0 size=   27115kB time=00:11:34.25 bitrate= 319.9kbits/s dup=1 drop=0 speed=6.57x    frame=16763 fps=158 q=32.0 size=   27242kB time=00:11:39.32 bitrate= 319.1kbits/s dup=1 drop=0 speed=6.59x    frame=16865 fps=158 q=32.0 size=   27383kB time=00:11:43.55 bitrate= 318.8kbits/s dup=1 drop=0 speed= 6.6x    frame=16981 fps=158 q=32.0 size=   27479kB time=00:11:48.41 bitrate= 317.8kbits/s dup=1 drop=0 speed=6.61x    frame=17085 fps=159 q=32.0 size=   27598kB time=00:11:52.76 bitrate= 317.2kbits/s dup=1 drop=0 speed=6.62x    frame=17199 fps=159 q=32.0 size=   27693kB time=00:11:57.50 bitrate= 316.2kbits/s dup=1 drop=0 speed=6.63x    frame=17310 fps=159 q=32.0 size=   27828kB time=00:12:02.15 bitrate= 315.7kbits/s dup=1 drop=0 speed=6.64x    frame=17378 fps=159 q=32.0 size=   27919kB time=00:12:04.97 bitrate= 315.5kbits/s dup=1 drop=0 speed=6.64x    frame=17461 fps=159 q=32.0 size=   28061kB time=00:12:08.42 bitrate= 315.6kbits/s dup=1 drop=0 speed=6.64x    frame=17541 fps=159 q=32.0 size=   28156kB time=00:12:11.75 bitrate= 315.2kbits/s dup=1 drop=0 speed=6.64x    frame=17627 fps=159 q=32.0 size=   28262kB time=00:12:15.33 bitrate= 314.8kbits/s dup=1 drop=0 speed=6.64x    frame=17735 fps=159 q=32.0 size=   28367kB time=00:12:19.86 bitrate= 314.1kbits/s dup=1 drop=0 speed=6.65x    frame=17831 fps=160 q=32.0 size=   28482kB time=00:12:23.87 bitrate= 313.7kbits/s dup=1 drop=0 speed=6.66x    frame=17893 fps=159 q=32.0 size=   28553kB time=00:12:26.43 bitrate= 313.4kbits/s dup=1 drop=0 speed=6.65x    frame=17945 fps=159 q=32.0 size=   28613kB time=00:12:28.60 bitrate= 313.1kbits/s dup=1 drop=0 speed=6.64x    frame=18083 fps=160 q=32.0 size=   28702kB time=00:12:34.41 bitrate= 311.7kbits/s dup=1 drop=0 speed=6.66x    frame=18196 fps=160 q=32.0 size=   28812kB time=00:12:39.10 bitrate= 310.9kbits/s dup=1 drop=0 speed=6.68x    frame=18319 fps=160 q=32.0 size=   28899kB time=00:12:44.22 bitrate= 309.8kbits/s dup=1 drop=0 speed=6.69x    frame=18430 fps=161 q=32.0 size=   28994kB time=00:12:48.83 bitrate= 308.9kbits/s dup=1 drop=0 speed= 6.7x    frame=18515 fps=161 q=32.0 size=   29127kB time=00:12:52.37 bitrate= 308.9kbits/s dup=1 drop=0 speed= 6.7x    frame=18597 fps=161 q=32.0 size=   29248kB time=00:12:55.78 bitrate= 308.8kbits/s dup=1 drop=0 speed= 6.7x    frame=18654 fps=160 q=32.0 size=   29357kB time=00:12:58.17 bitrate= 309.0kbits/s dup=1 drop=0 speed=6.69x    frame=18723 fps=160 q=32.0 size=   29480kB time=00:13:01.03 bitrate= 309.2kbits/s dup=1 drop=0 speed=6.69x    frame=18844 fps=161 q=32.0 size=   29595kB time=00:13:06.11 bitrate= 308.4kbits/s dup=1 drop=0 speed=6.71x    frame=18953 fps=161 q=32.0 size=   29744kB time=00:13:10.63 bitrate= 308.2kbits/s dup=1 drop=0 speed=6.71x    frame=19053 fps=161 q=32.0 size=   29869kB time=00:13:14.81 bitrate= 307.8kbits/s dup=1 drop=0 speed=6.72x    frame=19185 fps=162 q=32.0 size=   29985kB time=00:13:20.32 bitrate= 306.9kbits/s dup=1 drop=0 speed=6.74x    frame=19260 fps=162 q=32.0 size=   30116kB time=00:13:23.47 bitrate= 307.0kbits/s dup=1 drop=0 speed=6.74x    frame=19376 fps=162 q=32.0 size=   30246kB time=00:13:28.29 bitrate= 306.5kbits/s dup=1 drop=0 speed=6.75x    frame=19470 fps=162 q=32.0 size=   30384kB time=00:13:32.22 bitrate= 306.5kbits/s dup=1 drop=0 speed=6.75x    frame=19540 fps=162 q=32.0 size=   30515kB time=00:13:35.12 bitrate= 306.7kbits/s dup=1 drop=0 speed=6.75x    frame=19634 fps=162 q=32.0 size=   30633kB time=00:13:39.05 bitrate= 306.4kbits/s dup=1 drop=0 speed=6.75x    frame=19698 fps=162 q=32.0 size=   30739kB time=00:13:41.73 bitrate= 306.4kbits/s dup=1 drop=0 speed=6.75x    frame=19770 fps=162 q=32.0 size=   30867kB time=00:13:44.72 bitrate= 306.6kbits/s dup=1 drop=0 speed=6.75x    frame=19878 fps=162 q=32.0 size=   31006kB time=00:13:49.24 bitrate= 306.3kbits/s dup=1 drop=0 speed=6.75x    frame=19940 fps=162 q=32.0 size=   31121kB time=00:13:51.80 bitrate= 306.5kbits/s dup=1 drop=0 speed=6.75x    frame=20038 fps=162 q=32.0 size=   31292kB time=00:13:55.90 bitrate= 306.7kbits/s dup=1 drop=0 speed=6.75x    frame=20140 fps=162 q=32.0 size=   31415kB time=00:14:00.17 bitrate= 306.3kbits/s dup=1 drop=0 speed=6.76x    frame=20224 fps=162 q=32.0 size=   31547kB time=00:14:03.62 bitrate= 306.3kbits/s dup=1 drop=0 speed=6.76x    frame=20333 fps=162 q=32.0 size=   31642kB time=00:14:08.19 bitrate= 305.6kbits/s dup=1 drop=0 speed=6.77x    frame=20438 fps=162 q=32.0 size=   31803kB time=00:14:12.58 bitrate= 305.6kbits/s dup=1 drop=0 speed=6.77x    frame=20555 fps=163 q=32.0 size=   31974kB time=00:14:17.45 bitrate= 305.5kbits/s dup=1 drop=0 speed=6.79x    frame=20698 fps=163 q=32.0 size=   32139kB time=00:14:23.46 bitrate= 304.9kbits/s dup=1 drop=0 speed=6.81x    frame=20855 fps=164 q=32.0 size=   32265kB time=00:14:29.95 bitrate= 303.8kbits/s dup=1 drop=0 speed=6.83x    frame=20943 fps=164 q=32.0 size=   32421kB time=00:14:33.66 bitrate= 304.0kbits/s dup=1 drop=0 speed=6.83x    frame=21055 fps=164 q=32.0 size=   32530kB time=00:14:38.31 bitrate= 303.4kbits/s dup=1 drop=0 speed=6.84x    frame=21172 fps=164 q=32.0 size=   32645kB time=00:14:43.17 bitrate= 302.8kbits/s dup=1 drop=0 speed=6.85x    frame=21287 fps=164 q=32.0 size=   32769kB time=00:14:48.04 bitrate= 302.3kbits/s dup=1 drop=0 speed=6.86x    frame=21345 fps=164 q=32.0 size=   32929kB time=00:14:50.43 bitrate= 302.9kbits/s dup=1 drop=0 speed=6.85x    frame=21456 fps=165 q=32.0 size=   33102kB time=00:14:55.04 bitrate= 303.0kbits/s dup=1 drop=0 speed=6.86x    frame=21586 fps=165 q=32.0 size=   33193kB time=00:15:00.45 bitrate= 302.0kbits/s dup=1 drop=0 speed=6.88x    frame=21682 fps=165 q=32.0 size=   33318kB time=00:15:04.47 bitrate= 301.8kbits/s dup=1 drop=0 speed=6.88x    frame=21768 fps=165 q=32.0 size=   33400kB time=00:15:08.05 bitrate= 301.3kbits/s dup=1 drop=0 speed=6.88x    frame=21879 fps=165 q=32.0 size=   33516kB time=00:15:12.70 bitrate= 300.8kbits/s dup=1 drop=0 speed=6.89x    frame=22007 fps=166 q=32.0 size=   33626kB time=00:15:18.03 bitrate= 300.1kbits/s dup=1 drop=0 speed=6.91x    frame=22113 fps=166 q=32.0 size=   33711kB time=00:15:22.47 bitrate= 299.4kbits/s dup=1 drop=0 speed=6.91x    frame=22253 fps=166 q=32.0 size=   33818kB time=00:15:28.27 bitrate= 298.4kbits/s dup=1 drop=0 speed=6.93x    frame=22359 fps=166 q=32.0 size=   33928kB time=00:15:32.71 bitrate= 298.0kbits/s dup=1 drop=0 speed=6.94x    frame=22434 fps=166 q=32.0 size=   34034kB time=00:15:35.87 bitrate= 297.9kbits/s dup=1 drop=0 speed=6.93x    frame=22488 fps=166 q=32.0 size=   34136kB time=00:15:38.09 bitrate= 298.1kbits/s dup=1 drop=0 speed=6.92x    frame=22579 fps=166 q=32.0 size=   34275kB time=00:15:41.88 bitrate= 298.1kbits/s dup=1 drop=0 speed=6.93x    frame=22679 fps=166 q=32.0 size=   34350kB time=00:15:46.07 bitrate= 297.4kbits/s dup=1 drop=0 speed=6.93x    frame=22747 fps=166 q=32.0 size=   34494kB time=00:15:48.88 bitrate= 297.8kbits/s dup=1 drop=0 speed=6.93x    frame=22844 fps=166 q=32.0 size=   34613kB time=00:15:52.93 bitrate= 297.6kbits/s dup=1 drop=0 speed=6.93x    frame=22937 fps=166 q=32.0 size=   34715kB time=00:15:56.82 bitrate= 297.2kbits/s dup=1 drop=0 speed=6.93x    frame=23046 fps=166 q=32.0 size=   34830kB time=00:16:01.38 bitrate= 296.8kbits/s dup=1 drop=0 speed=6.94x    frame=23140 fps=166 q=32.0 size=   34978kB time=00:16:05.27 bitrate= 296.9kbits/s dup=1 drop=0 speed=6.94x    frame=23218 fps=166 q=32.0 size=   35122kB time=00:16:08.55 bitrate= 297.1kbits/s dup=1 drop=0 speed=6.94x    frame=23298 fps=166 q=32.0 size=   35274kB time=00:16:11.88 bitrate= 297.3kbits/s dup=1 drop=0 speed=6.94x    frame=23390 fps=166 q=32.0 size=   35345kB time=00:16:15.72 bitrate= 296.8kbits/s dup=1 drop=0 speed=6.94x    frame=23433 fps=166 q=32.0 size=   35496kB time=00:16:17.51 bitrate= 297.5kbits/s dup=1 drop=0 speed=6.93x    frame=23529 fps=166 q=32.0 size=   35599kB time=00:16:21.48 bitrate= 297.1kbits/s dup=1 drop=0 speed=6.93x    frame=23627 fps=166 q=32.0 size=   35715kB time=00:16:25.62 bitrate= 296.8kbits/s dup=1 drop=0 speed=6.93x    frame=23730 fps=166 q=32.0 size=   35833kB time=00:16:29.88 bitrate= 296.5kbits/s dup=1 drop=0 speed=6.94x    frame=23856 fps=167 q=32.0 size=   35912kB time=00:16:35.13 bitrate= 295.6kbits/s dup=1 drop=0 speed=6.95x    frame=23981 fps=167 q=32.0 size=   36043kB time=00:16:40.38 bitrate= 295.2kbits/s dup=1 drop=0 speed=6.96x    frame=24060 fps=167 q=32.0 size=   36187kB time=00:16:43.67 bitrate= 295.4kbits/s dup=1 drop=0 speed=6.96x    frame=24160 fps=167 q=32.0 size=   36282kB time=00:16:47.85 bitrate= 294.9kbits/s dup=1 drop=0 speed=6.97x    frame=24266 fps=167 q=32.0 size=   36395kB time=00:16:52.24 bitrate= 294.5kbits/s dup=1 drop=0 speed=6.97x    frame=24361 fps=167 q=32.0 size=   36477kB time=00:16:56.21 bitrate= 294.0kbits/s dup=1 drop=0 speed=6.98x    frame=24464 fps=167 q=32.0 size=   36628kB time=00:17:00.52 bitrate= 294.0kbits/s dup=1 drop=0 speed=6.98x    frame=24550 fps=167 q=32.0 size=   36704kB time=00:17:04.10 bitrate= 293.6kbits/s dup=1 drop=0 speed=6.98x    frame=24627 fps=167 q=32.0 size=   36815kB time=00:17:07.30 bitrate= 293.6kbits/s dup=1 drop=0 speed=6.98x    frame=24688 fps=167 q=32.0 size=   36938kB time=00:17:09.86 bitrate= 293.8kbits/s dup=1 drop=0 speed=6.97x    frame=24747 fps=167 q=32.0 size=   37056kB time=00:17:12.29 bitrate= 294.1kbits/s dup=1 drop=0 speed=6.97x    frame=24824 fps=167 q=32.0 size=   37183kB time=00:17:15.54 bitrate= 294.1kbits/s dup=1 drop=0 speed=6.96x    frame=24938 fps=167 q=32.0 size=   37325kB time=00:17:20.32 bitrate= 293.9kbits/s dup=1 drop=0 speed=6.97x    frame=25028 fps=167 q=32.0 size=   37411kB time=00:17:24.03 bitrate= 293.5kbits/s dup=1 drop=0 speed=6.97x    frame=25128 fps=167 q=32.0 size=   37511kB time=00:17:28.21 bitrate= 293.2kbits/s dup=1 drop=0 speed=6.98x    frame=25279 fps=168 q=32.0 size=   37630kB time=00:17:34.48 bitrate= 292.3kbits/s dup=1 drop=0 speed=   7x    frame=25416 fps=168 q=32.0 size=   37752kB time=00:17:40.20 bitrate= 291.7kbits/s dup=1 drop=0 speed=7.01x    frame=25576 fps=169 q=32.0 size=   37851kB time=00:17:46.90 bitrate= 290.6kbits/s dup=1 drop=0 speed=7.03x    frame=25700 fps=169 q=32.0 size=   37955kB time=00:17:52.06 bitrate= 290.0kbits/s dup=1 drop=0 speed=7.04x    frame=25794 fps=169 q=32.0 size=   38053kB time=00:17:55.99 bitrate= 289.7kbits/s dup=1 drop=0 speed=7.04x    frame=25877 fps=169 q=32.0 size=   38138kB time=00:17:59.44 bitrate= 289.4kbits/s dup=1 drop=0 speed=7.04x    frame=25951 fps=169 q=32.0 size=   38211kB time=00:18:02.56 bitrate= 289.2kbits/s dup=1 drop=0 speed=7.04x    frame=26035 fps=169 q=32.0 size=   38344kB time=00:18:06.05 bitrate= 289.2kbits/s dup=1 drop=0 speed=7.04x    frame=26126 fps=169 q=32.0 size=   38455kB time=00:18:09.81 bitrate= 289.1kbits/s dup=1 drop=0 speed=7.04x    frame=26243 fps=169 q=32.0 size=   38544kB time=00:18:14.72 bitrate= 288.4kbits/s dup=1 drop=0 speed=7.05x    frame=26341 fps=169 q=32.0 size=   38664kB time=00:18:18.77 bitrate= 288.3kbits/s dup=1 drop=0 speed=7.05x    frame=26454 fps=169 q=32.0 size=   38781kB time=00:18:23.51 bitrate= 287.9kbits/s dup=1 drop=0 speed=7.06x    frame=26556 fps=169 q=32.0 size=   38933kB time=00:18:27.77 bitrate= 287.9kbits/s dup=1 drop=0 speed=7.06x    frame=26688 fps=170 q=32.0 size=   39040kB time=00:18:33.28 bitrate= 287.3kbits/s dup=1 drop=0 speed=7.07x    frame=26818 fps=170 q=32.0 size=   39178kB time=00:18:38.69 bitrate= 286.9kbits/s dup=1 drop=0 speed=7.09x    frame=26925 fps=170 q=32.0 size=   39291kB time=00:18:43.13 bitrate= 286.6kbits/s dup=1 drop=0 speed=7.09x    frame=27004 fps=170 q=32.0 size=   39395kB time=00:18:46.46 bitrate= 286.5kbits/s dup=1 drop=0 speed=7.09x    frame=27057 fps=170 q=32.0 size=   39497kB time=00:18:48.68 bitrate= 286.7kbits/s dup=1 drop=0 speed=7.08x    frame=27109 fps=170 q=32.0 size=   39595kB time=00:18:50.81 bitrate= 286.8kbits/s dup=1 drop=0 speed=7.07x    frame=27160 fps=169 q=32.0 size=   39705kB time=00:18:52.95 bitrate= 287.1kbits/s dup=1 drop=0 speed=7.06x    frame=27228 fps=169 q=32.0 size=   39795kB time=00:18:55.80 bitrate= 287.0kbits/s dup=1 drop=0 speed=7.06x    frame=27295 fps=169 q=32.0 size=   39896kB time=00:18:58.58 bitrate= 287.0kbits/s dup=1 drop=0 speed=7.05x    frame=27359 fps=169 q=32.0 size=   39980kB time=00:19:01.22 bitrate= 287.0kbits/s dup=1 drop=0 speed=7.05x    frame=27447 fps=169 q=32.0 size=   40095kB time=00:19:04.89 bitrate= 286.9kbits/s dup=1 drop=0 speed=7.05x    frame=27533 fps=169 q=32.0 size=   40194kB time=00:19:08.52 bitrate= 286.7kbits/s dup=1 drop=0 speed=7.05x    frame=27624 fps=169 q=32.0 size=   40312kB time=00:19:12.32 bitrate= 286.6kbits/s dup=1 drop=0 speed=7.05x    frame=27721 fps=169 q=32.0 size=   40424kB time=00:19:16.37 bitrate= 286.4kbits/s dup=1 drop=0 speed=7.05x    frame=27802 fps=169 q=32.0 size=   40541kB time=00:19:19.70 bitrate= 286.4kbits/s dup=1 drop=0 speed=7.05x    frame=27892 fps=169 q=32.0 size=   40609kB time=00:19:23.49 bitrate= 285.9kbits/s dup=1 drop=0 speed=7.05x    frame=27937 fps=169 q=32.0 size=   40662kB time=00:19:25.37 bitrate= 285.8kbits/s dup=1 drop=0 speed=7.04x    frame=27982 fps=169 q=32.0 size=   40756kB time=00:19:27.25 bitrate= 286.0kbits/s dup=1 drop=0 speed=7.03x    frame=28032 fps=168 q=32.0 size=   40860kB time=00:19:29.34 bitrate= 286.2kbits/s dup=1 drop=0 speed=7.02x    frame=28102 fps=168 q=32.0 size=   40938kB time=00:19:32.24 bitrate= 286.1kbits/s dup=1 drop=0 speed=7.02x    frame=28180 fps=168 q=32.0 size=   41076kB time=00:19:35.48 bitrate= 286.3kbits/s dup=1 drop=0 speed=7.02x    frame=28320 fps=169 q=32.0 size=   41222kB time=00:19:41.33 bitrate= 285.9kbits/s dup=1 drop=0 speed=7.03x    frame=28444 fps=169 q=32.0 size=   41325kB time=00:19:46.49 bitrate= 285.3kbits/s dup=1 drop=0 speed=7.04x    frame=28504 fps=169 q=32.0 size=   41427kB time=00:19:49.01 bitrate= 285.4kbits/s dup=1 drop=0 speed=7.03x    frame=28560 fps=168 q=32.0 size=   41581kB time=00:19:51.36 bitrate= 285.9kbits/s dup=1 drop=0 speed=7.02x    frame=28616 fps=168 q=32.0 size=   41687kB time=00:19:53.70 bitrate= 286.1kbits/s dup=1 drop=0 speed=7.02x    frame=28664 fps=168 q=32.0 size=   41764kB time=00:19:55.67 bitrate= 286.1kbits/s dup=1 drop=0 speed=7.01x    frame=28715 fps=168 q=32.0 size=   41885kB time=00:19:57.80 bitrate= 286.5kbits/s dup=1 drop=0 speed=   7x    frame=28843 fps=168 q=32.0 size=   42018kB time=00:20:03.13 bitrate= 286.1kbits/s dup=1 drop=0 speed=7.01x    frame=28981 fps=168 q=32.0 size=   42139kB time=00:20:08.89 bitrate= 285.6kbits/s dup=1 drop=0 speed=7.02x    frame=29125 fps=169 q=32.0 size=   42251kB time=00:20:14.91 bitrate= 284.9kbits/s dup=1 drop=0 speed=7.04x    frame=29249 fps=169 q=32.0 size=   42386kB time=00:20:20.07 bitrate= 284.6kbits/s dup=1 drop=0 speed=7.05x    frame=29351 fps=169 q=32.0 size=   42538kB time=00:20:24.34 bitrate= 284.6kbits/s dup=1 drop=0 speed=7.05x    frame=29426 fps=169 q=32.0 size=   42638kB time=00:20:27.45 bitrate= 284.6kbits/s dup=1 drop=0 speed=7.05x    frame=29499 fps=169 q=32.0 size=   42727kB time=00:20:30.48 bitrate= 284.5kbits/s dup=1 drop=0 speed=7.05x    frame=29558 fps=169 q=32.0 size=   42839kB time=00:20:32.96 bitrate= 284.6kbits/s dup=1 drop=0 speed=7.04x    frame=29614 fps=169 q=32.0 size=   42926kB time=00:20:35.30 bitrate= 284.7kbits/s dup=1 drop=0 speed=7.03x    frame=29668 fps=168 q=32.0 size=   43010kB time=00:20:37.56 bitrate= 284.7kbits/s dup=1 drop=0 speed=7.02x    frame=29711 fps=168 q=32.0 size=   43116kB time=00:20:39.36 bitrate= 285.0kbits/s dup=1 drop=0 speed=7.01x    frame=29771 fps=168 q=32.0 size=   43227kB time=00:20:41.87 bitrate= 285.1kbits/s dup=1 drop=0 speed=7.01x    frame=29835 fps=168 q=32.0 size=   43321kB time=00:20:44.52 bitrate= 285.2kbits/s dup=1 drop=0 speed=   7x    frame=29915 fps=168 q=32.0 size=   43423kB time=00:20:47.85 bitrate= 285.1kbits/s dup=1 drop=0 speed=   7x    frame=30027 fps=168 q=32.0 size=   43553kB time=00:20:52.54 bitrate= 284.8kbits/s dup=1 drop=0 speed=7.01x    frame=30149 fps=168 q=32.0 size=   43638kB time=00:20:57.62 bitrate= 284.3kbits/s dup=1 drop=0 speed=7.02x    frame=30218 fps=168 q=32.0 size=   43695kB time=00:21:00.52 bitrate= 284.0kbits/s dup=1 drop=0 speed=7.01x    frame=30297 fps=168 q=32.0 size=   43776kB time=00:21:03.80 bitrate= 283.8kbits/s dup=1 drop=0 speed=7.01x    frame=30370 fps=168 q=32.0 size=   43872kB time=00:21:06.83 bitrate= 283.7kbits/s dup=1 drop=0 speed=7.01x    frame=30480 fps=168 q=32.0 size=   43953kB time=00:21:11.40 bitrate= 283.2kbits/s dup=1 drop=0 speed=7.02x    frame=30598 fps=168 q=32.0 size=   44071kB time=00:21:16.35 bitrate= 282.9kbits/s dup=1 drop=0 speed=7.02x    frame=30695 fps=168 q=32.0 size=   44159kB time=00:21:20.40 bitrate= 282.5kbits/s dup=1 drop=0 speed=7.03x    frame=30797 fps=169 q=32.0 size=   44240kB time=00:21:24.63 bitrate= 282.1kbits/s dup=1 drop=0 speed=7.03x    frame=30857 fps=168 q=32.0 size=   44360kB time=00:21:27.14 bitrate= 282.3kbits/s dup=1 drop=0 speed=7.02x    frame=30916 fps=168 q=32.0 size=   44463kB time=00:21:29.62 bitrate= 282.4kbits/s dup=1 drop=0 speed=7.02x    frame=31015 fps=168 q=32.0 size=   44569kB time=00:21:33.76 bitrate= 282.2kbits/s dup=1 drop=0 speed=7.02x    frame=31102 fps=168 q=32.0 size=   44700kB time=00:21:37.38 bitrate= 282.2kbits/s dup=1 drop=0 speed=7.02x    frame=31202 fps=168 q=32.0 size=   44786kB time=00:21:41.52 bitrate= 281.9kbits/s dup=1 drop=0 speed=7.02x    frame=31268 fps=168 q=32.0 size=   44883kB time=00:21:44.29 bitrate= 281.9kbits/s dup=1 drop=0 speed=7.02x    frame=31342 fps=168 q=32.0 size=   44996kB time=00:21:47.37 bitrate= 281.9kbits/s dup=1 drop=0 speed=7.02x    frame=31453 fps=168 q=32.0 size=   45067kB time=00:21:52.02 bitrate= 281.4kbits/s dup=1 drop=0 speed=7.02x    frame=31534 fps=168 q=32.0 size=   45184kB time=00:21:55.39 bitrate= 281.4kbits/s dup=1 drop=0 speed=7.02x    frame=31599 fps=168 q=32.0 size=   45317kB time=00:21:58.12 bitrate= 281.6kbits/s dup=1 drop=0 speed=7.02x    frame=31681 fps=168 q=32.0 size=   45424kB time=00:22:01.49 bitrate= 281.6kbits/s dup=1 drop=0 speed=7.02x    frame=31765 fps=168 q=32.0 size=   45543kB time=00:22:05.03 bitrate= 281.6kbits/s dup=1 drop=0 speed=7.02x    frame=31871 fps=168 q=32.0 size=   45636kB time=00:22:09.47 bitrate= 281.2kbits/s dup=1 drop=0 speed=7.02x    frame=31962 fps=168 q=32.0 size=   45750kB time=00:22:13.22 bitrate= 281.1kbits/s dup=1 drop=0 speed=7.02x    frame=32031 fps=168 q=32.0 size=   45874kB time=00:22:16.12 bitrate= 281.3kbits/s dup=1 drop=0 speed=7.02x    frame=32122 fps=168 q=32.0 size=   46011kB time=00:22:19.92 bitrate= 281.3kbits/s dup=1 drop=0 speed=7.02x    frame=32176 fps=168 q=32.0 size=   46140kB time=00:22:22.18 bitrate= 281.6kbits/s dup=1 drop=0 speed=7.01x    frame=32227 fps=168 q=32.0 size=   46236kB time=00:22:24.27 bitrate= 281.8kbits/s dup=1 drop=0 speed=7.01x    frame=32278 fps=168 q=32.0 size=   46329kB time=00:22:26.41 bitrate= 281.9kbits/s dup=1 drop=0 speed=   7x    frame=32332 fps=168 q=32.0 size=   46425kB time=00:22:28.67 bitrate= 282.0kbits/s dup=1 drop=0 speed=6.99x    frame=32397 fps=168 q=32.0 size=   46537kB time=00:22:31.40 bitrate= 282.1kbits/s dup=1 drop=0 speed=6.99x    frame=32463 fps=167 q=32.0 size=   46631kB time=00:22:34.13 bitrate= 282.1kbits/s dup=1 drop=0 speed=6.98x    frame=32528 fps=167 q=32.0 size=   46735kB time=00:22:36.82 bitrate= 282.2kbits/s dup=1 drop=0 speed=6.98x    frame=32588 fps=167 q=32.0 size=   46826kB time=00:22:39.33 bitrate= 282.2kbits/s dup=1 drop=0 speed=6.97x    frame=32642 fps=167 q=32.0 size=   46919kB time=00:22:41.60 bitrate= 282.3kbits/s dup=1 drop=0 speed=6.97x    frame=32699 fps=167 q=32.0 size=   47030kB time=00:22:43.99 bitrate= 282.5kbits/s dup=1 drop=0 speed=6.96x    frame=32752 fps=167 q=32.0 size=   47122kB time=00:22:46.20 bitrate= 282.5kbits/s dup=1 drop=0 speed=6.96x    frame=32805 fps=167 q=32.0 size=   47259kB time=00:22:48.38 bitrate= 282.9kbits/s dup=1 drop=0 speed=6.95x    frame=32855 fps=166 q=32.0 size=   47398kB time=00:22:50.47 bitrate= 283.3kbits/s dup=1 drop=0 speed=6.94x    frame=32906 fps=166 q=32.0 size=   47537kB time=00:22:52.60 bitrate= 283.7kbits/s dup=1 drop=0 speed=6.93x    frame=32961 fps=166 q=29.0 size=   47674kB time=00:22:54.91 bitrate= 284.1kbits/s dup=1 drop=0 speed=6.93x    frame=33011 fps=166 q=32.0 size=   47866kB time=00:22:57.00 bitrate= 284.8kbits/s dup=1 drop=0 speed=6.92x    frame=33060 fps=166 q=32.0 size=   48029kB time=00:22:59.05 bitrate= 285.3kbits/s dup=1 drop=0 speed=6.91x    frame=33101 fps=166 q=32.0 size=   48203kB time=00:23:00.75 bitrate= 286.0kbits/s dup=1 drop=0 speed= 6.9x    frame=33161 fps=165 q=32.0 size=   48345kB time=00:23:03.23 bitrate= 286.3kbits/s dup=1 drop=0 speed= 6.9x    frame=33229 fps=165 q=32.0 size=   48504kB time=00:23:06.09 bitrate= 286.7kbits/s dup=1 drop=0 speed= 6.9x    frame=33297 fps=165 q=32.0 size=   48616kB time=00:23:08.90 bitrate= 286.7kbits/s dup=1 drop=0 speed=6.89x    frame=33366 fps=165 q=32.0 size=   48784kB time=00:23:11.80 bitrate= 287.1kbits/s dup=1 drop=0 speed=6.89x    frame=33452 fps=165 q=32.0 size=   48939kB time=00:23:15.39 bitrate= 287.3kbits/s dup=1 drop=0 speed=6.89x    frame=33508 fps=165 q=32.0 size=   49078kB time=00:23:17.69 bitrate= 287.7kbits/s dup=1 drop=0 speed=6.88x    frame=33560 fps=165 q=32.0 size=   49216kB time=00:23:19.91 bitrate= 288.0kbits/s dup=1 drop=0 speed=6.88x    frame=33612 fps=165 q=32.0 size=   49319kB time=00:23:22.04 bitrate= 288.2kbits/s dup=1 drop=0 speed=6.87x    frame=33687 fps=165 q=32.0 size=   49476kB time=00:23:25.20 bitrate= 288.4kbits/s dup=1 drop=0 speed=6.87x    frame=33756 fps=165 q=32.0 size=   49618kB time=00:23:28.06 bitrate= 288.7kbits/s dup=1 drop=0 speed=6.87x    frame=33812 fps=164 q=32.0 size=   49733kB time=00:23:30.41 bitrate= 288.9kbits/s dup=1 drop=0 speed=6.86x    frame=33858 fps=164 q=32.0 size=   49846kB time=00:23:32.33 bitrate= 289.1kbits/s dup=1 drop=0 speed=6.85x    frame=33896 fps=164 q=32.0 size=   50002kB time=00:23:33.91 bitrate= 289.7kbits/s dup=1 drop=0 speed=6.84x    frame=33937 fps=164 q=32.0 size=   50168kB time=00:23:35.61 bitrate= 290.3kbits/s dup=1 drop=0 speed=6.83x    frame=33985 fps=164 q=32.0 size=   50343kB time=00:23:37.62 bitrate= 290.9kbits/s dup=1 drop=0 speed=6.83x    frame=34039 fps=164 q=32.0 size=   50480kB time=00:23:39.84 bitrate= 291.2kbits/s dup=1 drop=0 speed=6.82x    frame=34093 fps=163 q=32.0 size=   50636kB time=00:23:42.10 bitrate= 291.7kbits/s dup=1 drop=0 speed=6.82x    frame=34157 fps=163 q=32.0 size=   50750kB time=00:23:44.79 bitrate= 291.8kbits/s dup=1 drop=0 speed=6.81x    frame=34235 fps=163 q=32.0 size=   50900kB time=00:23:48.03 bitrate= 292.0kbits/s dup=1 drop=0 speed=6.81x    frame=34291 fps=163 q=32.0 size=   51024kB time=00:23:50.37 bitrate= 292.2kbits/s dup=1 drop=0 speed= 6.8x    frame=34344 fps=163 q=32.0 size=   51162kB time=00:23:52.59 bitrate= 292.6kbits/s dup=1 drop=0 speed= 6.8x    frame=34403 fps=163 q=32.0 size=   51302kB time=00:23:55.07 bitrate= 292.9kbits/s dup=1 drop=0 speed=6.79x    frame=34460 fps=163 q=32.0 size=   51407kB time=00:23:57.41 bitrate= 293.0kbits/s dup=1 drop=0 speed=6.79x    frame=34535 fps=163 q=32.0 size=   51502kB time=00:24:00.53 bitrate= 292.9kbits/s dup=1 drop=0 speed=6.79x    frame=34639 fps=163 q=32.0 size=   51607kB time=00:24:04.88 bitrate= 292.6kbits/s dup=1 drop=0 speed=6.79x    frame=34687 fps=163 q=32.0 size=   51758kB time=00:24:06.89 bitrate= 293.0kbits/s dup=1 drop=0 speed=6.78x    frame=34742 fps=163 q=32.0 size=   51926kB time=00:24:09.19 bitrate= 293.5kbits/s dup=1 drop=0 speed=6.78x    frame=34812 fps=162 q=32.0 size=   52069kB time=00:24:12.13 bitrate= 293.7kbits/s dup=1 drop=0 speed=6.78x    frame=34923 fps=163 q=32.0 size=   52197kB time=00:24:16.74 bitrate= 293.5kbits/s dup=1 drop=0 speed=6.78x    frame=35007 fps=163 q=32.0 size=   52323kB time=00:24:20.24 bitrate= 293.5kbits/s dup=1 drop=0 speed=6.78x    frame=35093 fps=163 q=32.0 size=   52423kB time=00:24:23.83 bitrate= 293.4kbits/s dup=1 drop=0 speed=6.78x    frame=35147 fps=162 q=32.0 size=   52496kB time=00:24:26.09 bitrate= 293.3kbits/s dup=1 drop=0 speed=6.78x    frame=35193 fps=162 q=32.0 size=   52625kB time=00:24:28.01 bitrate= 293.7kbits/s dup=1 drop=0 speed=6.77x    frame=35294 fps=162 q=32.0 size=   52785kB time=00:24:32.19 bitrate= 293.7kbits/s dup=1 drop=0 speed=6.77x    frame=35402 fps=163 q=32.0 size=   52927kB time=00:24:36.71 bitrate= 293.6kbits/s dup=1 drop=0 speed=6.78x    frame=35526 fps=163 q=32.0 size=   53032kB time=00:24:41.87 bitrate= 293.2kbits/s dup=1 drop=0 speed=6.79x    [mp4 @ 0x360f680] Starting second pass: moving the moov atom to the beginning of the file
frame=35550 fps=163 q=-1.0 Lsize=   53931kB time=00:24:42.60 bitrate= 298.0kbits/s dup=1 drop=0 speed=6.78x    
video:43705kB audio:9383kB subtitle:0kB other streams:0kB global headers:0kB muxing overhead: 1.587242%
[libx264 @ 0x361a140] frame I:332   Avg QP:21.05  size: 17557
[libx264 @ 0x361a140] frame P:11332 Avg QP:24.70  size:  2673
[libx264 @ 0x361a140] frame B:23886 Avg QP:28.52  size:   362
[libx264 @ 0x361a140] consecutive B-frames:  3.0%  5.9% 48.9% 42.2%
[libx264 @ 0x361a140] mb I  I16..4: 29.3% 43.4% 27.3%
[libx264 @ 0x361a140] mb P  I16..4:  3.4%  3.7%  1.5%  P16..4: 28.0%  4.6%  4.2%  0.2%  0.1%    skip:54.4%
[libx264 @ 0x361a140] mb B  I16..4:  0.2%  0.2%  0.1%  B16..8: 12.6%  0.9%  0.1%  direct: 0.7%  skip:85.3%  L0:38.3% L1:59.6% BI: 2.1%
[libx264 @ 0x361a140] 8x8 transform intra:42.4% inter:45.0%
[libx264 @ 0x361a140] coded y,uvDC,uvAC intra: 30.6% 50.3% 5.6% inter: 1.9% 3.6% 0.0%
[libx264 @ 0x361a140] i16 v,h,dc,p: 48% 25% 17% 10%
[libx264 @ 0x361a140] i8 v,h,dc,ddl,ddr,vr,hd,vl,hu: 21% 16% 48%  3%  2%  2%  2%  3%  3%
[libx264 @ 0x361a140] i4 v,h,dc,ddl,ddr,vr,hd,vl,hu: 29% 19% 22%  5%  5%  6%  5%  5%  4%
[libx264 @ 0x361a140] i8c dc,h,v,p: 46% 24% 24%  6%
[libx264 @ 0x361a140] Weighted P-Frames: Y:1.1% UV:0.8%
[libx264 @ 0x361a140] ref P L0: 63.3% 12.1% 11.0%  4.0%  2.9%  2.6%  2.2%  1.3%  0.7%  0.0%
[libx264 @ 0x361a140] ref B L0: 82.4%  8.0%  4.2%  1.9%  1.4%  1.1%  0.9%
[libx264 @ 0x361a140] ref B L1: 92.0%  8.0%
[libx264 @ 0x361a140] kb/s:241.46
